<svg width="100" height="100" viewBox="0 0 100 100" fill="none" xmlns="http://www.w3.org/2000/svg">
<path d="M20 80L45.5 20H54.5L80 80H71.75C71.75 80 73.0833 70.9677 65.75 63.871C58.4167 56.7742 43.2769 56.1798 35 62.5806C24.5 70.7006 26.75 80 26.75 80H20ZM49.1673 28.1059C49.1673 28.1059 26.75 70.3226 37.9173 55.2027C49.0846 40.0829 46.8346 51.0506 60.4173 55.2027C74 59.3548 49.1673 28.1059 49.1673 28.1059Z" fill="#51A2FF"/>
<path d="M37.9173 55.2027C26.75 70.3226 49.1673 28.1059 49.1673 28.1059C49.1673 28.1059 74 59.3548 60.4173 55.2027C46.8346 51.0506 49.0846 40.0829 37.9173 55.2027Z" stroke="#51A2FF"/>
<path d="M20 80L45.5 20H54.5L80 80H71.75C71.75 80 73.0833 70.9677 65.75 63.871C58.4167 56.7742 43.2769 56.1798 35 62.5806C24.5 70.7006 26.75 80 26.75 80H20ZM49.1673 28.1059C49.1673 28.1059 26.75 70.3226 37.9173 55.2027C49.0846 40.0829 46.8346 51.0506 60.4173 55.2027C74 59.3548 49.1673 28.1059 49.1673 28.1059Z" stroke="#51A2FF"/>
</svg>
